# AST/ASF file generated using VICON BodyLanguage
# -----------------------------------------------
:version 1.10
:name VICON
:units
  mass 1.0
  length 0.45
  angle deg
:documentation
   .ast/.asf automatically generated from VICON data using
   VICON BodyBuilder and BodyLanguage model FoxedUp or BRILLIANT.MOD
:root
   order TX TY TZ RX RY RZ
   axis XYZ
   position 0 0 0  
   orientation 0 0 0 
:bonedata
  begin
     id 1 
     name lhipjoint
     direction 0.440178 -0.822639 0.359871 
     length 2.53113 
     axis 0 0 0  XYZ
  end
  begin
     id 2 
     name lfemur
     direction 0.34202 -0.939693 0  
     length 7.88132  
     axis 0 0 20  XYZ
    dof rx ry rz
    limits (-160.0 20.0)
           (-70.0 70.0)
           (-60.0 70.0)
  end
  begin
     id 3 
     name ltibia
     direction 0.34202 -0.939693 0   
     length 8.43783   
     axis 0 0 20   XYZ
    dof rx
    limits (-10.0 170.0)
  end
  begin
     id 4 
     name lfoot
     direction 0.0886351 -0.243523 0.965837   
     length 2.63414   
     axis -90 7.62852e-016 20   XYZ
    dof rx rz
    limits (-45.0 90.0)
           (-70.0 20.0)
  end
  begin
     id 5 
     name ltoes
     direction 1.53703e-011 -4.21717e-011 1   
     length 1.31427   
     axis -90 7.62852e-016 20   XYZ
    dof rx
    limits (-90.0 20.0)
  end
  begin
     id 6 
     name rhipjoint
     direction -0.399779 -0.839773 0.367367   
     length 2.47948  
     axis 0 0 0  XYZ 
  end
  begin
     id 7 
     name rfemur
     direction -0.34202 -0.939693 0   
     length 7.74806   
     axis 0 0 -20   XYZ
    dof rx ry rz
    limits (-160.0 20.0)
           (-70.0 70.0)
           (-70.0 60.0)
  end
  begin
     id 8 
     name rtibia
     direction -0.34202 -0.939693 0   
     length 8.74432   
     axis 0 0 -20   XYZ
    dof rx
    limits (-10.0 170.0)
 end
 begin
     id 9 
     name rfoot
     direction -0.108514 -0.298139 0.948334   
     length 2.66102  
     axis -90 -7.62852e-016 -20   XYZ
    dof rx rz
    limits (-45.0 90.0)
           (-20.0 70.0)
  end
  begin
     id 10 
     name rtoes
     direction -1.53392e-011 -4.22077e-011 1   
     length 1.31983   
     axis -90 -7.62852e-016 -20   XYZ
    dof rx
    limits (-90.0 20.0)
  end
  begin
     id 11 
     name lowerback
     direction 0.0113257 0.999866 0.0118602   
     length 2.58694   
     axis 0 0 0   XYZ
    dof rx ry rz
    limits (-20.0 45.0)
           (-30.0 30.0)
           (-30.0 30.0)
  end
  begin
     id 12 
     name upperback
     direction -0.0164747 0.995193 -0.0965375   
     length 2.52368   
     axis 0 0 0   XYZ
    dof rx ry rz
    limits (-20.0 45.0)
           (-30.0 30.0)
           (-30.0 30.0)
  end
  begin
     id 13 
     name thorax
     direction -0.0194301 0.99433 -0.104552   
     length 2.56099   
     axis 0 0 0   XYZ
    dof rx ry rz
    limits (-20.0 45.0)
           (-30.0 30.0)
           (-30.0 30.0)
  end
  begin
     id 14 
     name lowerneck
     direction 0.0148543 0.995587 -0.092657   
     length 1.71582   
     axis 0 0 0   XYZ
    dof rx ry rz
    limits (-20.0 45.0)
           (-30.0 30.0)
           (-30.0 30.0)
  end
  begin
     id 15 
     name upperneck
     direction -0.0135467 0.993656 -0.111639   
     length 1.68937   
     axis 0 0 0   XYZ
    dof rx ry rz
    limits (-20.0 45.0)
           (-30.0 30.0)
           (-30.0 30.0)
  end
  begin
     id 16
     name head
     direction -0.00615349 0.999547 -0.029448  
     length 1.7462  
     axis 0 0 0   XYZ
    dof rx ry rz
    limits (-20.0 45.0)
           (-30.0 30.0)
           (-30.0 30.0)
  end
  begin
     id 17 
     name lclavicle
     direction 0.988267 0.149885 0.0293713  
     length 4.47222  
     axis 0 0 0   XYZ
    dof ry rz
    limits (-20.0 10.0)
           (0.0 20.0)
  end
  begin
     id 18 
     name lhumerus
     direction 1 -4.48986e-011 -1.14833e-027   
     length 5.37148   
     axis 180 -30 -90   XYZ
    dof rx ry rz
    limits (-60.0 90.0)
           (-90.0 90.0)
           (-90.0 90.0)
  end
  begin
     id 19
     name lradius
     direction 0.999998 0.00170963 -0.000987055   
     length 3.94212   
     axis 180 -30 -90   XYZ
    dof rx
    limits (-10.0 170.0)
  end
  begin
     id 20
     name lwrist
     direction 0.999998 7.53149e-005 -0.00194706   
     length 1.97106   
     axis 4.65056e-015 90 90   XYZ
    dof ry
    limits (-180.0 0.0)
 end
  begin
     id 21 
     name lhand
     direction 1 -4.48973e-011 -1.31746e-026   
     length 1.17917   
     axis 8.4065e-015 90 90   XYZ
    dof rx rz
    limits (-90.0 90.0)
           (-45.0 45.0)
  end
  begin
     id 22 
     name lfingers
     direction 1 -4.49107e-011 -2.63492e-026   
     length 0.950679   
     axis 1.6813e-014 90 90   XYZ
    dof rx
    limits (0.0 90.0)
  end
  begin
     id 23
     name lthumb
     direction 0.707107 -6.35048e-011 0.707107   
     length 1.36499   
     axis -90 45 2.85299e-015   XYZ
    dof rx rz
    limits (-45.0 45.0)
           (-45.0 45.0)
  end
  begin
     id 24 
     name rclavicle
     direction -0.996699 0.0642895 -0.0495725   
     length 4.62611  
     axis 0 0 0   XYZ 
    dof ry rz
    limits (-10.0 20.0)
           (-20.0 0.0)
  end
  begin
     id 25 
     name rhumerus
     direction -1 -4.48919e-011 -2.41059e-027  
     length 5.4981   
     axis 180 30 90   XYZ
    dof rx ry rz
    limits (-90.0 60.0)
           (-90.0 90.0)
           (-90.0 90.0)
  end
  begin
     id 26 
     name rradius
     direction -0.999999 0.00118101 -0.000681858   
     length 3.48381   
     axis 180 30 90   XYZ
    dof rx
    limits (-10.0 170.0)
  end
  begin
     id 27 
     name rwrist
     direction -0.999999 0.000321823 -0.00132288   
     length 1.7419   
     axis 4.65056e-015 -90 -90   XYZ
    dof ry
    limits (-180.0 0.0)
  end
  begin
     id 28
     name rhand
     direction -1 -4.49022e-011 -1.31746e-026   
     length 1.34932   
     axis 8.4065e-015 -90 -90   XYZ
    dof rx rz
    limits (-90.0 90.0)
           (-45.0 45.0)
  end
  begin
     id 29
     name rfingers
     direction -1 -4.49178e-011 -2.63492e-026   
     length 1.08785   
     axis 1.6813e-014 -90 -90   XYZ
    dof rx
    limits (0.0 90.0)
  end
  begin
     id 30
     name rthumb
     direction -0.707107 -6.34713e-011 0.707107   
     length 1.56195   
     axis -90 -45 -2.85299e-015   XYZ
    dof rx rz
    limits (-45.0 45.0)
           (-45.0 45.0)
  end
:hierarchy
  begin
    root lhipjoint rhipjoint lowerback
    lhipjoint lfemur
    lfemur ltibia
    ltibia lfoot
    lfoot ltoes
    rhipjoint rfemur
    rfemur rtibia
    rtibia rfoot
    rfoot rtoes
    lowerback upperback
    upperback thorax
    thorax lowerneck lclavicle rclavicle
    lowerneck upperneck
    upperneck head
    lclavicle lhumerus
    lhumerus lradius
    lradius lwrist
    lwrist lhand lthumb
    lhand lfingers
    rclavicle rhumerus
    rhumerus rradius
    rradius rwrist
    rwrist rhand rthumb
    rhand rfingers
  end

#!OML:ASF X:\für Bonn\!DataBase\2005_08_10_Bjorn_Final\c3d\bjorn.ASF
:FULLY-SPECIFIED
:DEGREES
1
root 0.424197 19.3546 4.05062 -172.989 4.75552 178.391
lowerback -5.61526 -0.534569 1.94359
upperback 14.1281 0.545043 2.25334
thorax 19.371 1.00686 1.92083
lowerneck -6.33833 5.27964 2.51054
upperneck -2.73751 7.13415 -8.0438
head 0.637754 3.60779 -2.79569
rclavicle -2.38542e-015 -3.89618e-014
rhumerus -1460 -77.5975 1388.2
rradius 10.4413
rwrist 55.5614
rhand -26.5468 2.42115
rfingers 7.12502
rthumb 0.0176042 -27.5586
lclavicle -2.38542e-015 -3.89618e-014
lhumerus -1448.92 122.684 -1367.67
lradius 10.6924
lwrist -123.186
lhand -21.3087 1.66672
lfingers 7.12502
lthumb 5.07624 31.5859
rfemur -20.8661 -7.76558 13.7394
rtibia 29.7497
rfoot -14.2254 9.09343
rtoes -15.9415
lfemur -16.3432 10.5029 -19.7047
ltibia 26.9379
lfoot -12.4481 -4.02976
ltoes -1.82884
2
root 0.41878 19.3767 4.12902 -172.364 4.96102 178.194
lowerback -4.84231 -0.521377 1.78383
upperback 14.3772 0.730201 2.10243
thorax 19.1667 1.12281 1.87081
lowerneck -7.54174 5.4574 2.53153
upperneck -3.82093 7.41595 -8.36022
head 0.528913 3.79732 -2.87641
rclavicle 5.40694e-014 6.52014e-014
rhumerus -1449.26 -76.1497 1376.25
rradius 9.817
rwrist 55.7887
rhand -26.6676 2.42761
rfingers 7.12502
rthumb -0.0990409 -27.5521
lclavicle 5.40694e-014 6.52014e-014
lhumerus -1453.27 123.271 -1370.4
lradius 10.6052
lwrist -124.79
lhand -21.11 0.955443
lfingers 7.12502
lthumb 5.26817 30.87
rfemur -21.8136 -8.03949 13.6692
rtibia 29.5586
rfoot -13.6242 9.39687
rtoes -15.9503
lfemur -17.2142 10.881 -20.1246
ltibia 26.6859
lfoot -12.0121 -4.23972
ltoes -1.60657
3
root 0.415136 19.3955 4.20862 -171.693 5.15738 177.996
lowerback -4.10372 -0.495592 1.61134
upperback 14.6218 0.932534 1.94412
thorax 18.9817 1.2458 1.82122
lowerneck -8.83367 5.61256 2.43155
upperneck -4.84809 7.70229 -8.47173
head 0.436091 3.99982 -2.86269
rclavicle 0 -1.66979e-014
rhumerus -1440.74 -74.3205 1366.64
rradius 9.35665
rwrist 56.0567
rhand -26.6004 2.12437
rfingers 7.12502
rthumb -0.0341737 -27.8554
lclavicle 0 -1.66979e-014
lhumerus -1457.79 123.534 -1373.38
lradius 10.4585
lwrist -125.807
lhand -21.1837 0.57375
lfingers 7.12502
lthumb 5.19696 30.49
rfemur -22.8296 -8.29862 13.6197
rtibia 29.3885
rfoot -13.0421 9.67761
rtoes -15.8781
lfemur -18.1501 11.3003 -20.5573
ltibia 26.4448
lfoot -11.553 -4.53287
ltoes -1.19681
4
root 0.409952 19.4134 4.28861 -171.027 5.3453 177.8
lowerback -3.30777 -0.484649 1.36355
upperback 14.82 1.10285 1.86998
thorax 18.6944 1.33256 1.89534
lowerneck -9.94899 5.72055 2.2328
upperneck -5.89579 7.96005 -8.70883
head 0.304033 4.20532 -2.88011
rclavicle -1.35174e-014 -1.27222e-014
rhumerus -1434.33 -72.0479 1359.41
rradius 8.98993
rwrist 56.5233
rhand -26.595 1.58243
rfingers 7.12502
rthumb -0.0289547 -28.3973
lclavicle -1.35174e-014 -1.27222e-014
lhumerus -1462.21 123.81 -1376.19
lradius 10.3249
lwrist -126.583
lhand -21.2574 0.376928
lfingers 7.12502
lthumb 5.12584 30.2949
rfemur -23.8641 -8.77905 13.6118
rtibia 29.2299
rfoot -12.4174 10.1317
rtoes -15.9661
lfemur -19.1014 11.6575 -21.0024
ltibia 26.2312
lfoot -11.1485 -4.76335
ltoes -0.957349
5
root 0.405272 19.4299 4.36884 -170.36 5.49345 177.616
lowerback -2.49185 -0.441939 1.18153
upperback 14.9347 1.28643 1.75812
thorax 18.2837 1.43267 1.87936
lowerneck -10.7728 5.76382 2.27611
upperneck -6.94946 8.11236 -9.11083
head 0.132366 4.36407 -3.01167
rclavicle 1.90833e-014 1.35174e-014
rhumerus -1429.63 -69.6399 1353.97
rradius 8.62044
rwrist 56.9736
rhand -26.5812 1.07865
rfingers 7.12502
rthumb -0.0155674 -28.9011
lclavicle 1.90833e-014 1.35174e-014
lhumerus -1466.69 123.627 -1379.34
lradius 10.0965
lwrist -126.657
lhand -21.3558 0.452798
lfingers 7.12502
lthumb 5.03085 30.3731
rfemur -24.8971 -9.14197 13.6134
rtibia 29.0886
rfoot -11.8239 10.4587
rtoes -15.8978
lfemur -20.0871 12.088 -21.4569
ltibia 26.0478
lfoot -10.7377 -5.08408
ltoes -0.97483
6
root 0.400099 19.4453 4.44848 -169.655 5.63234 177.455
lowerback -1.68528 -0.360812 1.07573
upperback 14.9721 1.49056 1.61433
thorax 17.7816 1.54961 1.77754
lowerneck -11.3132 5.74818 2.51738
upperneck -8.14747 8.16623 -9.6452
head -0.125539 4.48807 -3.24455
rclavicle -1.66979e-014 -1.74931e-014
rhumerus -1425.93 -67.1583 1349.59
rradius 8.19375
rwrist 57.2103
rhand -26.9906 0.490236
rfingers 7.12502
rthumb -0.410965 -29.4891
lclavicle -1.66979e-014 -1.74931e-014
lhumerus -1472.85 121.757 -1384.66
lradius 9.78836
lwrist -124.738
lhand -21.5516 0.884386
lfingers 7.12502
lthumb 4.84171 30.8091
rfemur -25.9832 -9.53647 13.664
rtibia 28.9494
rfoot -11.2051 10.8062
rtoes -15.7876
lfemur -21.1373 12.4676 -21.902
ltibia 25.8997
lfoot -10.3679 -5.37486
ltoes -0.858725
7
root 0.394474 19.459 4.52599 -168.953 5.7369 177.353
lowerback -0.872745 -0.300629 0.991733
upperback 14.9904 1.64857 1.5335
thorax 17.2552 1.6413 1.72353
lowerneck -11.8296 5.7076 2.70821
upperneck -9.33287 8.20275 -10.3022
head -0.383574 4.61595 -3.51775
rclavicle -1.03368e-014 2.14687e-014
rhumerus -1422.6 -64.4464 1345.86
rradius 7.65677
rwrist 57.2451
rhand -27.3667 -0.149455
rfingers 7.12502
rthumb -0.774297 -30.1278
lclavicle -1.03368e-014 2.14687e-014
lhumerus -1479.51 120.307 -1390.58
lradius 9.43528
lwrist -122.766
lhand -21.7764 1.36366
lfingers 7.12502
lthumb 4.62464 31.2932
rfemur -27.063 -10.116 13.8336
rtibia 28.811
rfoot -10.5094 11.2864
rtoes -15.5714
lfemur -22.1966 12.8797 -22.3042
ltibia 25.7826
lfoot -10.009 -5.71153
ltoes -0.881332
8
root 0.3889 19.4701 4.60309 -168.256 5.8208 177.249
lowerback -0.114926 -0.229016 0.921938
upperback 14.9999 1.81401 1.45229
thorax 16.7599 1.737 1.66148
lowerneck -12.2792 5.65394 2.92872
upperneck -10.4519 8.21852 -10.9968
head -0.632807 4.73735 -3.81822
rclavicle 1.03368e-014 3.33958e-014
rhumerus -1419.71 -61.667 1342.74
rradius 7.12595
rwrist 56.9625
rhand -27.6088 -0.731252
rfingers 7.12502
rthumb -1.00807 -30.7086
lclavicle 1.03368e-014 3.33958e-014
lhumerus -1486.9 119.298 -1397.36
lradius 9.0951
lwrist -120.852
lhand -22.0197 1.78001
lfingers 7.12502
lthumb 4.38971 31.7145
rfemur -28.1452 -10.6855 14.0141
rtibia 28.6771
rfoot -9.83646 11.7688
rtoes -15.4381
lfemur -23.2746 13.3297 -22.7376
ltibia 25.689
lfoot -9.66698 -6.07109
ltoes -1.44263
9
root 0.383565 19.4816 4.67563 -167.628 5.90258 177.154
lowerback 0.530543 -0.170479 0.869111
upperback 15.0633 1.97174 1.35872
thorax 16.4158 1.83593 1.58328
lowerneck -12.5824 5.60255 3.12788
upperneck -11.6676 8.24256 -11.6319
head -0.94635 4.87981 -4.11055
rclavicle 8.74653e-015 -4.77083e-015
rhumerus -1416.95 -58.762 1339.98
rradius 6.49111
rwrist 56.4834
rhand -27.5558 -1.25154
rfingers 7.12502
rthumb -0.956922 -31.2291
lclavicle 8.74653e-015 -4.77083e-015
lhumerus -1494.75 118.859 -1404.76
lradius 8.77024
lwrist -119.038
lhand -22.3671 2.11051
lfingers 7.12502
lthumb 4.05424 32.0517
rfemur -29.1485 -11.3648 14.2393
rtibia 28.5556
rfoot -9.17447 12.356
rtoes -15.3381
lfemur -24.2704 13.8049 -23.1645
ltibia 25.5999
lfoot -9.33288 -6.46286
ltoes -1.73837
10
root 0.378495 19.4894 4.746 -167.056 5.97905 176.991
lowerback 1.07743 -0.150814 0.684263
upperback 15.159 2.08507 1.29848
thorax 16.1773 1.89372 1.61579
lowerneck -12.7317 5.55632 3.16379
upperneck -12.9433 8.29357 -12.1941
head -1.31958 5.05549 -4.3629
rclavicle 3.18055e-015 2.38542e-015
rhumerus -1414.49 -55.6481 1337.78
rradius 5.83642
rwrist 55.6198
rhand -27.4371 -1.56088
rfingers 7.12502
rthumb -0.842283 -31.539
lclavicle 3.18055e-015 2.38542e-015
lhumerus -1502.55 119.112 -1412.2
lradius 8.52779
lwrist -117.638
lhand -22.6317 2.52394
lfingers 7.12502
lthumb 3.79881 32.4698
rfemur -30.0974 -12.0667 14.4008
rtibia 28.4483
rfoot -8.50991 12.9634
rtoes -15.0487
lfemur -25.2054 14.295 -23.6752
ltibia 25.5117
lfoot -8.99235 -6.87826
ltoes -2.07791
11
root 0.373181 19.4984 4.81336 -166.518 6.02597 176.849
lowerback 1.60803 -0.122743 0.589128
upperback 15.2193 2.19435 1.19675
thorax 15.9092 1.96231 1.5478
lowerneck -12.761 5.50173 3.08644
upperneck -14.1726 8.34672 -12.4862
head -1.72081 5.23308 -4.50963
rclavicle -1.59028e-015 1.11319e-014
rhumerus -1412.37 -52.5651 1336.03
rradius 5.14748
rwrist 54.3541
rhand -27.2227 -1.35739
rfingers 7.12502
rthumb -0.635154 -31.3362
lclavicle -1.59028e-015 1.11319e-014
lhumerus -1510.12 119.798 -1419.61
lradius 8.33747
lwrist -116.592
lhand -22.9729 2.7897
lfingers 7.12502
lthumb 3.46928 32.7412
rfemur -30.9288 -12.6518 14.5643
rtibia 28.348
rfoot -7.98854 13.443
rtoes -15.0188
lfemur -26.0974 14.7826 -24.1686
ltibia 25.4272
lfoot -8.62972 -7.34753
ltoes -2.23578
